<svg xmlns="http://www.w3.org/2000/svg" viewBox="0 0 464 224"><g fill="none" stroke="#000" stroke-linecap="round" stroke-linejoin="round" stroke-miterlimit="10" stroke-width="2"><path d="M2 2v100m120 0L172 2l50 100M102 2 2 52h90l10 50M372 2l-10 100h100M2 222l50-100 50 100m200-100h-60v100h100m-100-50h35m185 50H362l10-100m-30-20L242 52c13.81 0 25-11.19 25-25S255.81 2 242 2v100m-95 20 75 100m-25-100-75 100M432 17v5m10-5v5m-19.13 10c2.06 5.82 7.6 10 14.13 10s12.07-4.18 14.13-10" vector-effect="non-scaling-stroke"/><circle cx="437" cy="27" r="25" vector-effect="non-scaling-stroke"/></g></svg>