<svg xmlns="http://www.w3.org/2000/svg" viewBox="0 0 951.38 81.73"><g fill="#f30"><path d="M301.34 52.73c2.25.07 12.63-2.49 15.14-3.51 11.01-4.48 15.11-16.6 6.81-25.86-5.7-6.36-22.38-11.66-30.68-11.91l-59.47-1.83-.13 4c-6.62-3.46-14.2-3.07-21.31-4.7L107.2 5.75l-.27 9-42.98-1.32-.25 8 15.99.49c-2.9 2.15-18.99 16.86-20.94 16.35l-18.8-25.08c4.18-1.42 8.66-1.41 13.04-1.09l1.24-7.97L.25 2.46l-.25 8 16.49 2.45c2.64 5.09 28.4 34.14 28.33 36.45l-.54 17.49-17.03.47-.21 7 52.97 1.63.22-7-17-.52.57-18.49c.06-1.87 25.48-20.88 28.39-24.52 5.28-1.66 10.97-1.99 16.44-1.61l.21-7 14.99.46-3.44 46.92-17.99-.55-1.37 11.96L159 77.38l.34-10.99-16.99-.52 1.44-46.98c4.9-.36 10.83 1.01 15.56.56 1.92-.18 1.01-1.89 2.93-2.07 5.33-.51 12.04 1.02 17.56.61l.58 46.04-17.49-.54c-3.17 3.37-1.17 9.53-1.93 13.95l61.97 1.9.34-10.99-19.99-.61c-.34-1.09 1.07-2.16 1.08-2.47l.48-15.49 18.49.57c3.36.1 12.51-2.25 15.83-3.81 11.7-5.47 13.64-16.79 5.61-26.54l13 .38.58 46.04-18.99-.58-.43 13.99 61.97 1.9.34-10.99-19.99-.61 1.55-17.96 18.49.57Zm-15.58-28.44c5.05-1.21 16.06-.11 19.53 3.85 9.16 10.49-14.31 14.6-21.07 12.06l1.55-15.91Zm-58.37 9.68c-.9 1.05-5.83 4.31-6.64 4.28l-14.49-.45 1.55-15.91c6.96-2.44 28.02 2.2 19.59 12.07Z"/><path d="M448.07 55.48v8.01h-30.99v-15l8.95.05 1.05 6.95h15l-4.46-26.04-12.55-.96 1 9h-10l-1-15.99h28l-1 8h15l-1-23h-12c-.7 2.28-2.58 1.95-4.45 2.06-20.75 1.19-42.69-1-63.56-.06v11.01h17.01v45c-6.12.63-13.65-.83-19.57-.08-1.91.24-.95 1.92-2.87 2.16-4.11.52-9.3-.53-13.57-.08V19.49h15.5c2.93-2.9.98-8.14 1.5-12h-54v11h17l-2 47h-18l-1 12 56.57.08c1.82-.04.94-1.91 2.87-2.16 15.64-1.98 53.73-1.21 70.12.08 3.07.24 2.57-.49 2.45 3h14l-.99-23.01zm173.01-41.99h17v-12h-54v9h-42v8h15c-2.62 2.31-18.98 18.25-20.89 16.92l-19.1-24.42 12.95-1.54 1.04-7.95h-54v8l16.56 1.94c3.07 4.73 29.44 33.25 29.44 35.56v17.5l-17.01.99v7.01h53.01v-7.01h-17v-15.5c0-.96 1.7-4.49 2.44-5.56 7.37-4.39 19.21-20.03 25.98-23.02 4.4-1.94 10.83-1.92 15.58-1.91v-7h15l-2 47h-18l-1 12h58v-11h-17zm104.7 56.05.75-19.31 27.21-25.84 15.94-1.9-.22-9.01-44.99 1.08.19 7.99 15-.35-17.08 16.47-2.51.56-20.58-23.58 13.02-2.24.75-7.59-52.99 1.27.19 8 16.04 1.11 29.82 34.3.44 18.49-16.97 1.4.17 7.01 52.98-1.27-.16-7zM951.38 8l-.19-8-52.99 1.26.19 8.01c3.83-.16 7.84-.39 11.57.69 1.11.32 1.76-.72 1.48 1.48l-19.03 23.93-19.79-16.49 15-.36-.19-8-44.99 1.07.21 9 16.02 1.13c8.33 7.72 17.21 14.71 25.54 22.45 1.19 1.11 3.05 1.19 3.05 1.36l.48 19.99-17 .4.17 7 52.98-1.26-.16-7-17.02-.59-.42-17.5c-.06-2.31 26.18-30.91 28.57-36.27l16.53-2.32ZM838.4 54.93l-24.09-41.75 7.98.58 1.11-9.99-45-.43-.1 10 9.99.58-21.95 48.3c-1.83 2.24-10.13-1.31-13.5-.13l.89 11.01 45.01.43 1.06-8.95-11.96-2.16 6.79-17.99 20.23.42 4.07 9.87-10.01.92.88 13 41 .39-.88-12.01-11.49-2.1Zm-40.3-19.41 5.63-12.93 6.37 13.05-11.99-.12Z"/><path d="M504.08 35.49h-39l-1 19h42zm133-8.76-1 19h41l-2-19z"/></g></svg>